{"title":"S1 Dino Dan MP4","uid":7708280,"size":7418239101,"categoryP":"video","categoryS":"tv_shows","magnet":"?xt=urn:btih:e09ea356f789ee52f578112175cb7a8a8128480a&amp;dn=S1+Dino+Dan+MP4&amp;tr=udp%3A%2F%2Ftracker.openbittorrent.com%3A80&amp;tr=udp%3A%2F%2Fopen.demonii.com%3A1337&amp;tr=udp%3A%2F%2Ftracker.coppersurfer.tk%3A6969&amp;tr=udp%3A%2F%2Fexodus.desync.com%3A6969","seeders":0,"leechers":2,"uploader":"RubyisGloomy","files":-1,"time":1349743045,"description":"*****THESE EPISODES ARE PERFECT AUDIO/VIDEO QUALITY*****\n*****NO DROPPED FRAMES, NO DODGY AUDIO/VIDEO SYNC ISSUES*****\n\n*****NO REPACKED FILES - THESE ARE MY OWN SOURCED AND CONVERTED FILES*****\n\nI PAID FOR THEM, PURCHASED THE SOFTWARE AND HARDWARE NEEDED TO CAPTURE THEM AND NOW I'M SHARING THEM LIKE ALL GOOD LIL PIRATES SHOULD :)\n\n\nMedia Info: 19 DOUBLE EPISODES (episode description included as text file)\n\nGeneral - Info same for all episodes\n\nFormat                                   : MPEG-4\nFormat profile                           : Base Media\nCodec ID                                 : isom\nFile size                                : 351 MiB\nDuration                                 : 23mn 6s\nOverall bit rate mode                    : Variable\nOverall bit rate                         : 2 121 Kbps\n\nVideo\nID                                       : 1\nFormat                                   : MPEG-4 Visual\nFormat profile                           : Simple@L1\nFormat settings, BVOP                    : No\nFormat settings, QPel                    : No\nFormat settings, GMC                     : No warppoints\nFormat settings, Matrix                  : Default (H.263)\nCodec ID                                 : 20\nDuration                                 : 23mn 6s\nBit rate mode                            : Constant\nBit rate                                 : 2 020 Kbps\nWidth                                    : 1 280 pixels\nHeight                                   : 720 pixels\nDisplay aspect ratio                     : 16:9\nFrame rate mode                          : Constant\nFrame rate                               : 23.976 fps\nColor space                              : YUV\nChroma subsampling                       : 4:2:0\nBit depth                                : 8 bits\nScan type                                : Progressive\nCompression mode                         : Lossy\nBits/(Pixel*Frame)                       : 0.091\nStream size                              : 334 MiB (95%)\nWriting library                          : Lavc53.8.0\n\nAudio\nID                                       : 2\nFormat                                   : AAC\nFormat/Info                              : Advanced Audio Codec\nFormat profile                           : LC\nCodec ID                                 : 40\nDuration                                 : 23mn 6s\nBit rate mode                            : Variable\nBit rate                                 : 96.0 Kbps\nMaximum bit rate                         : 128 Kbps\nChannel(s)                               : 2 channels\nChannel positions                        : Front: L R\nSampling rate                            : 44.1 KHz\nCompression mode                         : Lossy\nStream size                              : 16.0 MiB (5%)\n","torrent":{"xt":"urn:btih:e09ea356f789ee52f578112175cb7a8a8128480a","amp;dn":"S1+Dino+Dan+MP4","amp;tr":["udp%3A%2F%2Ftracker.openbittorrent.com%3A80","udp%3A%2F%2Fopen.demonii.com%3A1337","udp%3A%2F%2Ftracker.coppersurfer.tk%3A6969","udp%3A%2F%2Fexodus.desync.com%3A6969"],"infoHash":"e09ea356f789ee52f578112175cb7a8a8128480a","infoHashBuffer":{"type":"Buffer","data":[224,158,163,86,247,137,238,82,245,120,17,33,117,203,122,138,129,40,72,10]},"announce":[],"urlList":[]}}